<?xml version="1.0" encoding="UTF-8"?>
<svg xmlns="http://www.w3.org/2000/svg" id="a" width="865.76" height="682.89" viewBox="0 0 865.76 682.89">
  <g>
    <g>
      <g>
        <polygon points="135.01 296.04 640.53 296.04 640.53 592.8 135.5 592.8 135.01 296.04" fill="#e6e7e8"></polygon>
        <path d="M641.03,593.3H135v-.5s-.5-297.26-.5-297.26h506.52v297.76Zm-505.03-1h504.03V296.55H135.51l.49,295.76Z" fill="#002346"></path>
      </g>
      <g>
        <polygon points="640.54 296.04 846.51 296.04 846.51 593.04 640.5 592.8 640.54 296.04" fill="#e6e7e8"></polygon>
        <path d="M847.01,593.54h-.5s-206.51-.25-206.51-.25l.04-297.75h206.97v298Zm-206.01-1.24l205.01,.24V296.54h-204.98l-.04,295.76Z" fill="#002346"></path>
      </g>
      <g>
        <ellipse cx="437.88" cy="527.65" rx="46.77" ry="42.31" fill="#fff"></ellipse>
        <path d="M437.88,570.47c-26.07,0-47.27-19.21-47.27-42.81s21.21-42.81,47.27-42.81,47.27,19.2,47.27,42.81-21.21,42.81-47.27,42.81Zm0-84.62c-25.51,0-46.27,18.76-46.27,41.81s20.76,41.81,46.27,41.81,46.27-18.76,46.27-41.81-20.76-41.81-46.27-41.81Z" fill="#002346"></path>
      </g>
      <g>
        <circle cx="441.22" cy="528.76" r="32.29" fill="#e6e7e8"></circle>
        <path d="M441.22,561.56c-18.08,0-32.79-14.71-32.79-32.79s14.71-32.79,32.79-32.79,32.79,14.71,32.79,32.79-14.71,32.79-32.79,32.79Zm0-64.58c-17.53,0-31.79,14.26-31.79,31.79s14.26,31.79,31.79,31.79,31.79-14.26,31.79-31.79-14.26-31.79-31.79-31.79Z" fill="#002346"></path>
      </g>
      <g>
        <polygon points="30.19 209.85 30.19 535.6 135.01 593.04 135.01 296.04 30.19 209.85" fill="#e6e7e8"></polygon>
        <path d="M135.51,593.89l-105.82-57.99V208.8l.82,.67,105,86.34v298.08Zm-104.82-58.58l103.82,56.89V296.28L30.69,210.91v324.4Z" fill="#002346"></path>
      </g>
      <g>
        <path d="M769.01,187.05l-749.8-.12,109.12,97.99,717.76,.13c.38,0,.61-.44,.38-.75l-77.45-97.25Z" fill="#fff"></path>
        <path d="M846.08,285.55l-717.95-.13-.14-.13L17.9,186.43h1.31l750.04,.12,.15,.19,77.45,97.25c.23,.31,.26,.7,.1,1.03-.17,.33-.5,.53-.86,.53Zm-717.57-1.13l717.57,.13-77.31-97-748.26-.12,108,96.99Z" fill="#002346"></path>
      </g>
      <g>
        <rect x="128.33" y="284.91" width="718.18" height="11.13" fill="#e6e7e8"></rect>
        <path d="M847.01,296.55H127.83v-12.13H847.01v12.13Zm-718.18-1H846.01v-10.13H128.83v10.13Z" fill="#002346"></path>
      </g>
      <g>
        <path d="M172.87,218.1s-15.59-17.82,6.68-15.59l189.3-4.46s7.19-.82,16.65-.42c18.35,.77,35.61,9.09,47.73,22.89,4.3,4.89,8.31,10.03,12.01,15.39,0,0,14.92,24.5-11.8,26.73H243.82c-6.12,.01-12.2-.98-18-2.93-8.75-3-21-8.53-29.43-18.23l-23.52-23.38Z" fill="#e6e7e8"></path>
        <path d="M243.69,263.15c-6.14,0-12.21-.99-18.03-2.96-8.89-3.05-21.25-8.71-29.65-18.38l-23.52-23.38c-.3-.35-7.38-8.53-4.9-13.35,1.39-2.69,5.43-3.72,12-3.06l189.24-4.46s7.29-.82,16.68-.42c18.36,.77,35.89,9.18,48.08,23.06,4.3,4.89,8.35,10.09,12.05,15.44,.3,.5,7.04,11.73,2.92,19.84-2.26,4.44-7.33,7.02-15.09,7.67H243.82s-.08,0-.13,0Zm-70.46-45.38l23.51,23.37c8.28,9.53,20.47,15.1,29.24,18.11,5.76,1.94,11.74,2.9,17.84,2.9h189.62c7.34-.62,12.15-3.01,14.24-7.12,3.87-7.61-2.8-18.74-2.87-18.85-3.66-5.29-7.69-10.46-11.96-15.32-12.02-13.68-29.28-21.96-47.37-22.72-9.3-.39-16.5,.41-16.57,.42l-189.34,4.46c-6.19-.62-9.9,.23-11.08,2.53-2.14,4.14,4.44,11.86,4.75,12.22Z" fill="#002346"></path>
      </g>
      <g>
        <path d="M219.18,257.52c-2.27-1.16-4.24-2.85-5.73-4.92-5.21-7.19-14.33-24.32,18.36-22.91h161.07s20.15-2.69,22.55,11.79c0,0,13.48,21.16-26.58,21.16H243.85c-8.54,.59-17.07-1.19-24.67-5.12Z" fill="#fff"></path>
        <path d="M240.63,263.26c-7.52,0-14.96-1.81-21.69-5.29-2.33-1.19-4.38-2.95-5.91-5.07-2.91-4.01-7.34-11.57-4.35-17.13,2.64-4.91,10.42-7.11,23.14-6.58h161.05c.14-.02,20.5-2.57,23.03,12.11,.52,.85,4.07,7.07,.94,12.77-3.3,6.02-12.72,9.07-28,9.07H243.85c-1.07,.07-2.14,.11-3.21,.11Zm-12.5-33.14c-10.14,0-16.37,2.06-18.56,6.13-2.73,5.08,1.51,12.25,4.28,16.07,1.44,2,3.36,3.65,5.55,4.77h0c7.52,3.89,15.96,5.64,24.41,5.07h145.03c14.88,0,24-2.88,27.12-8.54,3.01-5.48-.92-11.79-.96-11.85l-.07-.19c-2.29-13.83-21.79-11.41-21.99-11.38H231.81c-1.28-.05-2.5-.08-3.67-.08Z" fill="#002346"></path>
      </g>
      <g>
        <path d="M479.83,218.1s-15.59-17.82,6.68-15.59l189.29-4.46s38.21-2.01,52.22,10c9.07,8.37,17.2,17.71,24.22,27.86,0,0,14.92,24.5-11.81,26.73h-189.66c-6.12,.01-12.2-.98-18-2.93-8.75-3-21-8.53-29.43-18.23l-23.51-23.38Z" fill="#e6e7e8"></path>
        <path d="M550.64,263.15c-6.14,0-12.21-.99-18.03-2.96-8.89-3.05-21.25-8.71-29.65-18.38l-23.51-23.38c-.3-.35-7.38-8.53-4.9-13.35,1.39-2.69,5.43-3.72,12-3.06l189.23-4.46c1.55-.08,38.56-1.88,52.56,10.12,9.1,8.39,17.27,17.79,24.31,27.96,.3,.5,7.04,11.73,2.92,19.84-2.26,4.44-7.34,7.02-15.1,7.67h-189.7s-.08,0-.13,0Zm-70.45-45.38l23.5,23.37c8.28,9.53,20.47,15.1,29.24,18.11,5.76,1.94,11.8,2.9,17.84,2.9h189.66c7.35-.62,12.16-3.01,14.25-7.13,3.87-7.62-2.8-18.73-2.87-18.84-6.98-10.08-15.1-19.42-24.13-27.75-13.68-11.73-51.48-9.89-51.85-9.87l-189.3,4.46c-6.19-.62-9.9,.23-11.08,2.53-2.14,4.14,4.44,11.86,4.75,12.22Z" fill="#002346"></path>
      </g>
      <g>
        <path d="M526.13,257.52c-2.27-1.16-4.23-2.85-5.72-4.92-5.22-7.19-14.33-24.32,18.35-22.91h161.08s20.14-2.69,22.55,11.79c0,0,13.47,21.16-26.58,21.16h-145c-8.54,.59-17.08-1.18-24.68-5.12Z" fill="#fff"></path>
        <path d="M547.58,263.26c-7.52,0-14.96-1.8-21.69-5.29-2.33-1.19-4.37-2.94-5.9-5.07-2.91-4.01-7.34-11.56-4.35-17.12,2.64-4.91,10.42-7.12,23.13-6.58h161.06c.14-.02,20.49-2.57,23.03,12.11,.52,.85,4.07,7.07,.94,12.77-3.3,6.02-12.72,9.07-28,9.07h-145c-1.07,.07-2.15,.11-3.22,.11Zm-12.5-33.14c-10.14,0-16.37,2.06-18.56,6.13-2.73,5.08,1.51,12.25,4.28,16.07,1.44,2,3.35,3.65,5.54,4.77h0c7.52,3.9,15.97,5.65,24.42,5.07h145.03c14.88,0,24-2.88,27.12-8.55,3.01-5.49-.92-11.78-.96-11.84l-.07-.19c-2.3-13.83-21.79-11.4-21.99-11.38h-161.15c-1.28-.05-2.5-.08-3.67-.08Z" fill="#002346"></path>
      </g>
      <g>
        <path d="M224.09,313.86c-4.94-4.57-7.62-11.09-7.32-17.82h200.84v11.82s2.27,44.6-106.19,38.22c-9.57-.59-19.03-2.27-28.22-5-17.75-5.18-47.07-15.19-59.11-27.22Z" fill="#fff"></path>
        <path d="M331.55,347.21c-6.26,0-12.96-.2-20.16-.62-9.59-.59-19.12-2.28-28.33-5.02-16.85-4.92-46.97-15.01-59.31-27.34-5.06-4.68-7.78-11.32-7.47-18.2l.02-.48h201.82v12.32c.02,.35,.36,9.38-9.14,18.81-9.81,9.73-31.13,20.53-77.42,20.53Zm-114.3-50.66c-.15,6.42,2.45,12.58,7.18,16.95h.01c12.18,12.19,42.13,22.21,58.9,27.11,9.14,2.72,18.6,4.39,28.11,4.98,60.05,3.53,85.78-8.7,96.78-19.58,9.21-9.11,8.89-18.03,8.88-18.12v-11.34H217.25Z" fill="#002346"></path>
      </g>
      <g>
        <path d="M399.92,333.01h73.95s30.82-1.34,28.59,34.29l6.69,140.34s2.7,17.58-.09,34.86c-3.46,21.43-24.96,35.28-45.76,29.07-8.23-2.46-16.96-6.91-23.2-14.93,0,0-17.82-20.05,0-33.41,0,0,16.56-10.35,23.74,10.87,.72,2.12,2.18,3.94,4.21,4.88,3.96,1.82,9.9,1.34,9.9-17.97l-8.34-141.78c-.32-5.45-4.78-9.74-10.24-9.84l-89.15-1.75c-9.44-.17-17-7.88-17-17.32l.42-4.47s30.58-2.59,46.26-12.84Z" fill="#fff"></path>
        <path d="M473.41,573.55c-3.44,0-6.89-.49-10.25-1.5-10.12-3.02-18.01-8.1-23.45-15.1-.35-.39-9.01-10.27-7.93-20.96,.52-5.12,3.22-9.55,8.03-13.16,.32-.2,7.01-4.3,13.88-1.85,4.72,1.69,8.3,6.05,10.64,12.96,.71,2.08,2.15,3.76,3.95,4.59,1.86,.85,3.46,.86,4.77,.02,2.02-1.29,4.43-5.39,4.43-17.54l-8.34-141.75c-.3-5.16-4.58-9.27-9.75-9.37l-89.15-1.75c-9.64-.18-17.49-8.17-17.49-17.82l.46-4.93,.42-.04c.3-.03,30.64-2.7,46.03-12.76l.12-.08h74.1c.1,0,12.67-.45,21.22,8.28,5.94,6.06,8.59,14.99,7.87,26.55l6.69,140.29c.02,.12,2.68,17.81-.09,34.96-1.69,10.48-7.83,19.74-16.84,25.39-5.86,3.68-12.56,5.57-19.31,5.57Zm-24.29-52.33c-4.76,0-8.7,2.41-8.75,2.44-4.54,3.41-7.11,7.6-7.6,12.43-1.04,10.24,7.62,20.12,7.71,20.22,5.33,6.86,13.06,11.82,22.97,14.78,9.65,2.88,20.13,1.44,28.74-3.96,8.77-5.5,14.74-14.5,16.38-24.7,2.74-17,.11-34.53,.08-34.7l-6.69-140.39c.7-11.31-1.84-19.98-7.57-25.83-8.24-8.4-20.38-7.99-20.5-7.98h-73.82c-14.64,9.48-42.23,12.44-45.95,12.8l-.38,4.06c0,9.06,7.41,16.6,16.51,16.77l89.15,1.75c5.68,.1,10.4,4.63,10.73,10.31l8.34,141.78c0,10.15-1.64,16.33-4.89,18.41-1.59,1.02-3.57,1.04-5.73,.04-2.05-.94-3.68-2.83-4.48-5.17-2.24-6.61-5.61-10.76-10.02-12.34-1.43-.51-2.87-.71-4.23-.71Z" fill="#002346"></path>
      </g>
      <g>
        <path d="M467.87,373.99c-.46-.93,21.23,4.45,34.59-6.69l.56,11.63s-12.25,10-33.13,4.76c0,0,1.24-3.05-2.02-9.7Z" fill="#002346"></path>
        <path d="M481.65,385.7c-3.58,0-7.55-.43-11.89-1.52l-.56-.14,.22-.53s1.09-2.98-2.01-9.29l-.13-.26,.17-.29c.25-.37,.65-.33,2.84-.12,5.87,.56,21.46,2.04,31.85-6.62l.77-.64,.62,12.88-.2,.16c-.1,.08-8.01,6.38-21.68,6.38Zm-11.15-2.37c18.68,4.5,30.37-3.43,32.01-4.63l-.5-10.39c-10.68,8.23-25.97,6.78-31.81,6.22-.6-.06-1.18-.11-1.58-.14,2.27,4.89,2.11,7.8,1.89,8.94Z" fill="#002346"></path>
      </g>
      <g>
        <path d="M512.24,418.52h0c-4.25,0-7.77-3.31-8-7.56l-1.3-23.38c-.26-4.78,3.41-8.87,8.19-9.13,.15,0,.31-.01,.46-.01h0c4.78,0,8.66,3.88,8.66,8.66v23.41c0,4.42-3.57,8-7.99,8.01h-.02Z" fill="#002346"></path>
        <path d="M512.22,419.02c-4.51,0-8.24-3.53-8.49-8.03l-1.3-23.38c-.27-5.05,3.61-9.38,8.66-9.65,5.27-.29,9.65,3.93,9.65,9.15v23.41c0,2.27-.88,4.41-2.48,6.01s-3.74,2.49-6.01,2.5l-.02-.5v.5h-.01Zm-.64-40.08c-.15,0-.29,0-.44,.01-4.5,.25-7.96,4.1-7.71,8.6l1.3,23.38c.22,3.98,3.51,7.09,7.49,7.09h.03c2,0,3.88-.79,5.3-2.2,1.41-1.42,2.19-3.3,2.19-5.31v-23.41c0-4.5-3.66-8.16-8.16-8.16Z" fill="#002346"></path>
      </g>
      <g>
        <path d="M520.24,388.9h69.34s19.74,.67,17.51-26.05h23.65l-1.66,22.36s-1.9,22.18-33.08,24.41l-75.72,.89-.04-21.61Z" fill="#fff"></path>
        <path d="M519.78,411.02l-.04-22.62h69.84c.06,0,6.87,.16,11.85-5.07,4.19-4.41,5.93-11.29,5.17-20.43l-.05-.54h24.73l-1.7,22.9c-.02,.23-2.3,22.64-33.54,24.87l-76.25,.9Zm.96-21.62l.04,20.6,75.21-.88c30.33-2.17,32.57-23.73,32.59-23.95l1.62-21.82h-22.57c.67,9.18-1.17,16.14-5.49,20.68-5.28,5.55-12.29,5.39-12.58,5.37h-68.82Z" fill="#002346"></path>
      </g>
      <g>
        <rect x="598.22" y="349.49" width="35.63" height="13.36" fill="#002346"></rect>
        <path d="M634.35,363.35h-36.63v-14.36h36.63v14.36Zm-35.63-1h34.63v-12.36h-34.63v12.36Z" fill="#002346"></path>
      </g>
      <g>
        <rect x="584.86" y="338.35" width="55.67" height="11.13" fill="#e6e7e8"></rect>
        <path d="M641.03,349.98h-56.67v-12.13h56.67v12.13Zm-55.67-1h54.67v-10.13h-54.67v10.13Z" fill="#002346"></path>
      </g>
      <g>
        <path d="M454.11,296.04s-.64,22.27,26.08,31.18c0,0,29,20,104.67,16.7h55.68v-47.88h-186.43Z" fill="#fff"></path>
        <path d="M568.54,344.79c-61.48,0-87.13-16.16-88.58-17.11-26.7-8.94-26.36-31.42-26.36-31.65v-.49h187.43v48.88h-56.18c-5.7,.25-11.14,.36-16.32,.36Zm-113.93-48.24c.12,3.28,1.87,22.25,25.73,30.21l.12,.06c.29,.2,29.78,19.88,104.37,16.61h55.2v-46.88h-185.42Z" fill="#002346"></path>
      </g>
      <g>
        <rect x="393.34" y="160.2" width="22.27" height="31.18" rx="3.4" ry="3.4" fill="#e6e7e8"></rect>
        <path d="M412.21,191.89h-15.47c-2.15,0-3.9-1.75-3.9-3.9v-24.38c0-2.15,1.75-3.9,3.9-3.9h15.47c2.15,0,3.9,1.75,3.9,3.9v24.38c0,2.15-1.75,3.9-3.9,3.9Zm-15.47-31.18c-1.6,0-2.9,1.3-2.9,2.9v24.38c0,1.6,1.3,2.9,2.9,2.9h15.47c1.6,0,2.9-1.3,2.9-2.9v-24.38c0-1.6-1.3-2.9-2.9-2.9h-15.47Z" fill="#002346"></path>
      </g>
      <g>
        <rect x="435.66" y="160.2" width="22.27" height="31.18" rx="3.4" ry="3.4" fill="#e6e7e8"></rect>
        <path d="M454.53,191.89h-15.47c-2.15,0-3.9-1.75-3.9-3.9v-24.38c0-2.15,1.75-3.9,3.9-3.9h15.47c2.15,0,3.9,1.75,3.9,3.9v24.38c0,2.15-1.75,3.9-3.9,3.9Zm-15.47-31.18c-1.6,0-2.9,1.3-2.9,2.9v24.38c0,1.6,1.3,2.9,2.9,2.9h15.47c1.6,0,2.9-1.3,2.9-2.9v-24.38c0-1.6-1.3-2.9-2.9-2.9h-15.47Z" fill="#002346"></path>
      </g>
      <g>
        <path d="M462.38,68.89c-23.37,0-42.31,18.94-42.31,42.31v57.9h-4.46v17.82h20.04v-17.82h-6.68v-57.9h0c0-18.46,14.96-33.41,33.41-33.4,18.45,0,33.4,14.95,33.4,33.4v11.14h8.91v-11.14c0-23.37-18.94-42.31-42.31-42.31Z" fill="#08415c"></path>
        <path d="M436.15,187.43h-21.04v-18.82h4.46v-57.4c0-23.61,19.21-42.81,42.81-42.81s42.81,19.2,42.81,42.81v11.64h-9.91v-11.64c0-18.14-14.76-32.9-32.9-32.9h-.01c-8.78,0-17.04,3.42-23.26,9.63-6.22,6.21-9.64,14.47-9.64,23.26v57.41h6.68v18.82Zm-20.04-1h19.04v-16.82h-6.68v-58.4c0-9.06,3.53-17.58,9.94-23.98,6.4-6.4,14.91-9.92,23.96-9.92h.01c18.69,0,33.9,15.21,33.9,33.9v10.64h7.91v-10.64c0-23.05-18.76-41.81-41.81-41.81s-41.81,18.76-41.81,41.81v58.4h-4.46v16.82Z" fill="#002346"></path>
      </g>
      <g>
        <path d="M487.88,117.88h26.72v23c0,.85-.69,1.54-1.54,1.54h-23.65c-.85,0-1.54-.69-1.54-1.54h0v-23h.01Z" fill="#002346"></path>
        <path d="M513.06,142.93h-23.65c-1.12,0-2.04-.92-2.04-2.04v-23.5h27.73v23.5c0,1.12-.92,2.04-2.04,2.04Zm-24.69-24.54v22.5c0,.57,.47,1.04,1.04,1.04h23.65c.57,0,1.04-.47,1.04-1.04v-22.5h-25.73Z" fill="#002346"></path>
      </g>
      <g>
        <polygon points="19.21 186.92 19.21 200.21 128.33 296.04 128.33 284.91 19.21 186.92" fill="#e6e7e8"></polygon>
        <path d="M128.83,297.15L18.71,200.44v-14.64l110.12,98.89v12.46ZM19.71,199.99l108.12,94.95v-9.8L19.71,188.05v11.94Z" fill="#002346"></path>
      </g>
    </g>
    <g>
      <polygon points="652.89 513.04 660.12 481 667.55 483.12 660.75 515.14 652.89 513.04" fill="#fff"></polygon>
      <path d="M661.13,515.76l-8.83-2.36,7.45-33.03,8.39,2.39-7.01,32.99Zm-7.65-3.08l6.89,1.84,6.59-31.05-6.47-1.85-7.01,31.05Z" fill="#002346"></path>
    </g>
    <g>
      <path d="M676.31,477.64l-5.32,6.08c-.8,.93-2.06,1.31-3.24,1l-7.64-2.08c-1.27-.35-2.2-1.45-2.34-2.76l-.84-8.44s.41-1.13-4-2.69l-13.79-2.4c-.7-.12-1.17-.78-1.05-1.47,0,0,0-.01,0-.02l1.65-9.09c.14-.7,.82-1.15,1.52-1.01,0,0,.02,0,.03,0l17.8,4s3.9-1.95,9.83,.69c.26,.11,.53,.24,.79,.37l10.62,5.31s6.37,2.12,8.5,8.5c0,0,7.27,13.09,7.37,18.81-.02,1.14-.95,2.06-2.1,2.04-.34,0-.67-.09-.96-.25-1.79-1.19-3.27-2.8-4.31-4.68,0,0-6.25-8.92-10.56-12-.57-.5-1.43-.47-1.96,.08Z" fill="#ffe817"></path>
      <path d="M694.13,495h-.04c-.42,0-.83-.11-1.19-.31-1.88-1.25-3.43-2.93-4.51-4.88-.03-.04-6.22-8.84-10.41-11.83-.41-.36-.96-.33-1.3,.01l-5.31,6.07c-.92,1.06-2.39,1.51-3.74,1.15l-7.64-2.08c-1.48-.41-2.54-1.66-2.71-3.19l-.85-8.56,.04-.1s-.2-.82-3.7-2.05l-13.71-2.38c-.96-.16-1.62-1.08-1.46-2.05l1.65-9.12c.2-.98,1.14-1.6,2.11-1.41l17.68,3.97c.84-.35,4.63-1.67,10.09,.76,.26,.11,.54,.24,.81,.38l10.62,5.31c.2,.06,6.57,2.25,8.75,8.79,.26,.45,7.29,13.18,7.4,18.96,0,.7-.29,1.34-.78,1.82-.48,.47-1.12,.73-1.79,.73Zm-16.8-18.29c.45,0,.9,.16,1.27,.48,4.29,3.06,10.38,11.72,10.64,12.09,1.03,1.85,2.46,3.41,4.18,4.55,.19,.1,.44,.17,.69,.17h.02c.41,0,.8-.16,1.09-.44,.3-.29,.47-.68,.47-1.1-.1-5.52-7.24-18.43-7.31-18.56-2.06-6.14-8.16-8.25-8.22-8.27l-10.69-5.34c-.25-.12-.51-.25-.76-.36-5.63-2.5-9.38-.72-9.41-.7l-.16,.08-.17-.04-17.8-4c-.45-.09-.86,.19-.95,.61l-1.65,9.08c-.07,.43,.22,.84,.64,.91l13.79,2.4c2.47,.87,3.89,1.74,4.3,2.6,.12,.26,.13,.46,.12,.6l.83,8.37c.12,1.11,.9,2.03,1.98,2.33l7.64,2.08c.99,.26,2.06-.07,2.73-.84l5.34-6.1c.38-.39,.88-.59,1.38-.59Z" fill="#002346"></path>
    </g>
    <g>
      <path d="M335.17,532.97l75.47,6.43c1.6,.14,3.1,.81,4.27,1.9l8,7.51,1,.92c1.06,.99,2.21,1.88,3.43,2.65,.57,.36,1.16,.69,1.76,1,1.04,.53,2.13,.97,3.25,1.3,.33,.1,.65,.19,1,.26,6.26,1.52,12.86,.54,18.41-2.73,.6-.34,.82-1.11,.47-1.72-.11-.2-.27-.36-.47-.47l-11.52-6.3-1.18-.65c-.77-.37-1.49-.85-2.12-1.43-1.61-1.51-1.92-3.94-.74-5.8l4.33-5.72c2.16-3.61,5.77-.72,5.77-.72l6.88,4.33c4.72,3.61,6.83,2.89,6.83,2.89,4.33-2.17-10.1-18-10.1-18-5.05-6.5-11.55-2.17-11.55-2.17l-11.65,7.36c-5.87,3.75-13.61,2.74-13.61,2.74l-77.11-7.57c-3.13-.31-5.96,1.89-6.42,5-.12,.86-.18,1.74-.17,2.61,0,0-.72,5.66,5.77,6.38Zm-2.16-6.86c0-2.21,1.79-4,4-4s4,1.79,4,4-1.79,4-4,4-4-1.79-4-4h0s0,0,0,0Z" fill="#08415c"></path>
      <path d="M439.22,556.15c-2,0-4.01-.24-5.99-.72-.35-.07-.68-.16-1.03-.27-1.15-.34-2.27-.79-3.33-1.33-.67-.34-1.25-.68-1.8-1.02-1.25-.79-2.43-1.7-3.51-2.71l-1-.92-8-7.51c-1.08-1.01-2.49-1.64-3.97-1.77l-75.48-6.43c-2.2-.24-3.87-1.06-4.94-2.43-1.57-1.99-1.28-4.41-1.27-4.51,0-.83,.05-1.73,.17-2.61,.51-3.39,3.56-5.77,6.96-5.43l77.11,7.57c.09,.01,7.65,.94,13.29-2.66l11.65-7.36c.06-.04,6.94-4.5,12.21,2.29,1.18,1.3,11.77,13.05,10.97,17.34-.12,.64-.48,1.13-1.04,1.41-.3,.11-2.57,.72-7.36-2.94l-6.84-4.3c-.06-.04-1.6-1.26-3.12-.98-.77,.14-1.43,.66-1.95,1.53l-4.36,5.76c-1.02,1.62-.74,3.79,.68,5.13,.59,.54,1.26,.99,1.99,1.34l12.72,6.96c.28,.16,.51,.39,.67,.66,.48,.84,.18,1.92-.66,2.4-3.93,2.31-8.32,3.5-12.78,3.5Zm-104.01-23.67l75.46,6.43c1.7,.15,3.32,.87,4.57,2.03l9,8.43c1.03,.97,2.16,1.84,3.36,2.6,.52,.33,1.08,.65,1.72,.98,1.01,.52,2.07,.94,3.16,1.26,.32,.1,.62,.18,.96,.25,6.18,1.5,12.59,.55,18.06-2.67,.37-.21,.5-.68,.29-1.04-.07-.12-.17-.22-.29-.29l-12.69-6.95c-.79-.38-1.55-.89-2.22-1.5-1.78-1.67-2.13-4.38-.83-6.44l4.35-5.75c.65-1.09,1.54-1.76,2.61-1.96,1.97-.36,3.8,1.09,3.88,1.15l6.83,4.3c4.4,3.36,6.39,2.84,6.41,2.84,.21-.11,.37-.33,.43-.67,.6-3.22-7.56-13.02-10.75-16.52-4.72-6.08-10.65-2.26-10.9-2.09l-11.66,7.37c-5.95,3.8-13.62,2.85-13.94,2.81l-77.09-7.57c-2.86-.29-5.45,1.72-5.88,4.58-.11,.83-.17,1.69-.16,2.53,0,.09-.25,2.19,1.07,3.84,.9,1.14,2.33,1.83,4.25,2.04Zm1.79-1.86c-2.48,0-4.5-2.02-4.5-4.5s2.02-4.5,4.5-4.5,4.5,2.02,4.5,4.5-2.02,4.5-4.5,4.5Zm0-8c-1.93,0-3.5,1.57-3.5,3.5s1.57,3.5,3.5,3.5,3.5-1.57,3.5-3.5-1.57-3.5-3.5-3.5Z" fill="#002346"></path>
    </g>
    <g>
      <path d="M420.66,553.03l1.45,1.49c.62,.64,1.62,.7,2.32,.15l2.91-2.29c-1.22-.77-2.37-1.66-3.43-2.65l-1-.92-2.1,1.65c-.75,.6-.87,1.68-.27,2.43,.04,.05,.08,.09,.12,.14Z" fill="#08415c"></path>
      <path d="M423.35,555.55c-.58,0-1.17-.23-1.6-.68l-1.45-1.49c-.05-.06-.11-.11-.16-.17-.37-.47-.54-1.05-.47-1.64,.07-.59,.36-1.12,.83-1.49l2.44-1.92,1.31,1.21c1.03,.97,2.16,1.84,3.36,2.6l.6,.38-3.47,2.73c-.41,.33-.9,.49-1.39,.49Zm-.47-6.08l-1.77,1.39c-.25,.2-.42,.5-.45,.82-.04,.33,.06,.65,.26,.9,.03,.04,.06,.07,.09,.1l1.45,1.49c.44,.46,1.15,.5,1.65,.11l2.37-1.86c-1.03-.7-2.01-1.48-2.92-2.32l-.68-.63Z" fill="#002346"></path>
    </g>
    <g>
      <path d="M254.35,257.31l-8.66,5.77s17.32,23.1,24.53,33.92c0,0,5.17-7.78,7.64-7.5,0,0-5.77-13,1.6-31.62h-.84s-7.67,10.25-24.27-.57Z" fill="#f2b3c1"></path>
      <path d="M270.22,297.89l-.41-.62c-7.12-10.68-24.34-33.67-24.51-33.9l-.31-.42,9.36-6.24,.27,.18c15.99,10.42,23.3,1.09,23.61,.69l.15-.2h1.81s-.27,.67-.27,.67c-7.2,18.19-1.67,31.11-1.61,31.24l.35,.78-.85-.1c-1.63-.17-5.24,4.37-7.17,7.28l-.41,.62Zm-23.83-34.69c2.33,3.11,17.03,22.8,23.83,32.92,1.3-1.89,4.59-6.36,6.95-7.03-.99-2.76-4.51-14.61,1.49-30.51-1.7,1.81-9.63,8.74-24.31-.68l-7.96,5.3Z" fill="#002346"></path>
    </g>
    <g>
      <path d="M72.96,490.7c.49,1.81,.93,3.63,1.29,5.47,1.09,5.52,6,20.11,28.1,25.49,7.48,1.81,15.23,2.12,22.83,.92,4.45-.69,8.81-1.86,13-3.5,21.61-8.44,69.21-29.18,122.64-66.21l-18.35,82.34-5.44,24.43s18,5.77,59.89-1.45c3.45-.79,6.83-1.88,10.09-3.26,3.56-1.56,6.18-4.7,7.08-8.48,3.66-15.08,14.41-60.48,23.25-108.77,0,0,4.58,3.06,10.75-2.81,1.38-1.33,2.61-2.81,3.68-4.4,0,0,13.47-18.13,12.47-41.47,0-.83-.09-1.68-.17-2.52,0,0-2.88-10.82-19.48-12.27-2.62,.8-5.46-.05-7.21-2.16l-59.25-59.21c-.87-.87-1.19-2.14-.85-3.32l.12-.38c.29-1,.11-2.07-.5-2.91l-6.66-9.23-24.53-33.92s-4-8.11-9.23-.8l-4.96,7.36s-20.47,6.4-35.62,13.62c0,0-13,5.77-21.65,16.6l-37.52,45.46s-12.27,12.32-13.72,19.51c0,0,0,6.5-10.1,12.27,0,0-14.43,8.66-14.43,18.76l-1.44,10.83s-35.67,41.16-24.08,84.01Z" fill="#ffe817"></path>
      <path d="M258.93,562.3c-14.97,0-21.94-2.15-22.05-2.18l-.43-.14,5.54-24.88,18.07-81.09c-52.29,36.08-98.63,56.53-121.69,65.54-4.22,1.65-8.63,2.84-13.11,3.53-7.7,1.22-15.45,.9-23.02-.93-22.15-5.39-27.29-19.89-28.47-25.88-.33-1.69-.75-3.47-1.28-5.44h0c-11.23-41.5,22.01-81.89,24.08-84.35l1.42-10.68c0-10.2,14.07-18.76,14.67-19.12,9.7-5.54,9.86-11.78,9.86-11.84,1.47-7.35,13.36-19.35,13.87-19.86l37.49-45.43c8.62-10.79,21.7-16.68,21.83-16.74,14.27-6.8,33.51-12.96,35.51-13.59l4.86-7.22c1.65-2.31,3.38-3.39,5.16-3.26,2.99,.24,4.86,3.96,4.94,4.12l31.15,43.08c.7,.97,.91,2.19,.57,3.34l-.12,.39c-.29,.99-.01,2.08,.73,2.82l59.25,59.21c1.65,1.99,4.27,2.78,6.71,2.04l.09-.03h.1c16.75,1.47,19.89,12.54,19.92,12.65l.04,.31c.07,.77,.15,1.56,.15,2.34,1,23.23-12.43,41.58-12.57,41.77-1.07,1.6-2.33,3.1-3.73,4.46-5.11,4.86-9.19,3.87-10.73,3.2-8.7,47.38-19.07,91.37-23.13,108.13-.93,3.91-3.68,7.21-7.37,8.82-3.28,1.39-6.71,2.5-10.18,3.29-16.06,2.77-28.67,3.62-38.1,3.62Zm-21.31-3.01c3,.79,21.47,4.92,59.21-1.59,3.39-.77,6.76-1.86,9.98-3.23,3.39-1.49,5.93-4.53,6.79-8.14,4.09-16.84,14.53-61.14,23.24-108.74l.14-.75,.63,.42c.17,.11,4.35,2.74,10.13-2.76,1.35-1.3,2.56-2.76,3.61-4.32,.15-.2,13.37-18.29,12.38-41.17,0-.75-.07-1.52-.15-2.27l-.02-.23s-2.99-10.38-18.93-11.81c-2.79,.81-5.78-.1-7.65-2.35l-59.22-59.18c-1-1-1.37-2.46-.98-3.81l.12-.39c.25-.84,.09-1.75-.43-2.47l-31.19-43.15c-.06-.11-1.74-3.44-4.17-3.64-1.39-.11-2.83,.84-4.25,2.83l-5.05,7.49-.17,.05c-.2,.06-20.61,6.47-35.55,13.59-.14,.06-13,5.86-21.47,16.46l-37.52,45.47c-.15,.16-12.21,12.33-13.62,19.29,0,.18-.11,6.76-10.34,12.61-.13,.08-14.18,8.63-14.18,18.33l-1.46,11.04-.1,.11c-.36,.41-35.36,41.46-23.97,83.55h0c.54,1.99,.96,3.79,1.3,5.51,1.14,5.79,6.14,19.84,27.73,25.1,7.45,1.8,15.06,2.11,22.63,.91,4.41-.68,8.74-1.85,12.9-3.47,23.17-9.05,69.91-29.68,122.54-66.16l1.05-.73-23.97,107.56Z" fill="#002346"></path>
    </g>
    <g>
      <path d="M178.01,394.05s-27.57-3.23-50.67-2.51c-2.05,4.18-3.72,8.53-5,13l33.28,.78,22.4-11.27Z" fill="#08415c"></path>
      <path d="M155.73,405.82l-34.05-.8,.18-.62c1.29-4.49,2.98-8.89,5.03-13.08l.13-.27h.3c22.87-.72,50.47,2.48,50.75,2.51l1.66,.19-24,12.07Zm-32.73-1.77l32.5,.76,20.78-10.45c-6.29-.67-29.14-2.91-48.62-2.34-1.87,3.86-3.44,7.9-4.66,12.03Z" fill="#002346"></path>
    </g>
    <g>
      <path d="M116.52,392.25c-1.96,4.04-3.4,8.32-4.28,12.72l-13.69,1.54c-1.65,.2-3.14-.98-3.34-2.62,0-.01,0-.03,0-.04-.1-1.23,.03-2.47,.36-3.66,0,0,.72-5.05,7.22-5.77l13.73-2.17Z" fill="#08415c"></path>
      <path d="M98.18,407.04c-1.74,0-3.26-1.31-3.47-3.08-.11-1.35,.02-2.64,.37-3.89h0s.85-5.38,7.65-6.13l14.65-2.32-.42,.86c-1.94,4-3.37,8.24-4.24,12.6l-.07,.36-14.05,1.58c-.14,.02-.28,.02-.42,.02Zm17.47-14.14l-12.79,2.02c-6.07,.67-6.8,5.3-6.8,5.35-.33,1.2-.45,2.38-.36,3.55,.17,1.39,1.41,2.36,2.78,2.2l13.33-1.5c.83-4.01,2.12-7.91,3.84-11.62Z" fill="#002346"></path>
    </g>
    <g>
      <path d="M125.18,522.58c9.38,15.6,34.64,46.47,34.64,46.47,4.33,7.94,15.15,1.44,15.15,1.44l67.52-35.28,18.35-82.34c-53.43,37-101,57.77-122.64,66.21-4.2,1.64-8.56,2.82-13.02,3.5Z" fill="#ffe817"></path>
      <path d="M166.61,573.5c-.83,0-1.66-.09-2.46-.31-2.06-.56-3.67-1.87-4.77-3.9-.2-.23-25.34-31-34.63-46.45l-.38-.64,.74-.11c4.41-.68,8.76-1.85,12.91-3.47,23.09-9.01,69.71-29.58,122.54-66.16l1.05-.73-18.68,83.81-.21,.11-67.52,35.28c-.18,.11-4.33,2.56-8.59,2.56Zm-40.62-50.54c9.54,15.58,33.96,45.47,34.21,45.78,1.02,1.85,2.42,3,4.2,3.49,4.56,1.24,10.25-2.12,10.3-2.16l67.34-35.19,18.02-80.87c-52.48,36.19-98.71,56.58-121.69,65.54-3.99,1.56-8.16,2.71-12.39,3.41Z" fill="#002346"></path>
    </g>
    <g>
      <path d="M348.09,434.9c10,3.68,119.86,8.59,119.86,8.59,10.82,0,36.08,10.82,36.08,10.82,12.27,7.94,13,3.61,13,3.61,2.88-5-16.6-11.55-16.6-14.43s10.81,1.44,10.81,1.44c17.32,5,18.77,2.17,18.77,2.17,4.33-5.78-24.54-13-24.54-13-5.77-3.61,11-.72,11-.72,23.27,5.05,21.46,0,21.46,0,2.17-6.5-30.3-10.83-30.3-10.83v-1.44c35.36,2.16,31.75-2.89,31.75-2.89-.72-4.33-13.71-5-13.71-5l-24.08-4.49c-5.35-1.15-2.15-5.4,.09-7.7,1.82-1.83,3.33-3.93,4.49-6.24,3.19-6.54,.74-9,.74-9-2-4.41-5.91-.51-8.25,2.45-1.81,2.28-3.9,4.32-6.22,6.08-6.93,5.32-14.51,9.72-22.55,13.12-5.25,2.88-16.38,0-16.38,0-43.27-6.53-89.27-18.44-89.27-18.44,1,23.34-12.43,41.5-12.43,41.5-1.08,1.59-2.33,3.07-3.72,4.4Z" fill="#f2b3c1"></path>
      <path d="M514.88,459.6c-2.39,0-6.11-1.63-11.12-4.87-.18-.07-25.22-10.74-35.81-10.74-4.51-.2-110.07-4.96-120.03-8.62l-.74-.27,.57-.54c1.36-1.31,2.59-2.76,3.65-4.32,.15-.2,13.33-18.31,12.35-41.2l-.03-.66,.64,.17c.46,.12,46.47,11.98,89.22,18.43,.16,.04,11.05,2.81,16.07,.06,8.05-3.4,15.6-7.79,22.49-13.08,2.29-1.73,4.35-3.75,6.13-6,2.58-3.27,4.78-4.81,6.54-4.6,1.05,.13,1.89,.86,2.51,2.18,.41,.48,2.33,3.25-.71,9.49-1.18,2.36-2.73,4.5-4.58,6.37-2.13,2.19-3.15,4.12-2.8,5.28,.23,.75,1.06,1.29,2.47,1.59l24.07,4.49c1.3,.06,13.18,.81,14.09,5.31,.13,.26,.22,.72-.05,1.22-1.49,2.7-12.45,3.52-31.67,2.37v.49c3.57,.5,26.66,3.91,29.97,9.21,.42,.68,.54,1.37,.35,2.07,.05,.32,0,.84-.42,1.31-1.86,2.12-9.34,1.82-21.65-.85-4.89-.84-10.56-1.41-11.56-.9,.09,.11,.31,.33,.86,.69,1.71,.43,23.2,5.96,25.12,11.38,.29,.82,.16,1.65-.39,2.38-.23,.46-2.44,2.87-19.3-1.99-3.26-1.3-8.82-3.03-10.03-2.21-.09,.06-.15,.13-.15,.3,0,.86,3.52,2.83,6.36,4.42,4.53,2.54,9.66,5.41,10.43,8.22,.19,.69,.12,1.36-.22,1.98-.07,.25-.32,.86-1.14,1.22-.41,.18-.9,.27-1.46,.27Zm-165.86-24.92c13.65,3.59,117.88,8.28,118.95,8.33,10.78,0,35.22,10.42,36.25,10.86,7.73,4.99,10.63,5.01,11.69,4.58,.54-.22,.63-.6,.64-.61l.06-.15c.23-.4,.28-.83,.16-1.29-.66-2.41-5.82-5.3-9.96-7.62-4.38-2.46-6.86-3.91-6.86-5.28,0-.47,.2-.85,.58-1.11,2-1.35,9.43,1.51,10.9,2.1,16.09,4.64,18.16,2.38,18.18,2.36,.37-.5,.45-.96,.27-1.48-1.48-4.18-18.2-9.19-24.51-10.77l-.14-.06c-.79-.5-1.67-1.16-1.39-1.9,.57-1.49,7.24-.67,12.73,.28,16.35,3.55,19.92,2.02,20.7,1.2,.28-.29,.22-.54,.21-.56l-.04-.14,.04-.16c.15-.45,.08-.9-.21-1.37-3.27-5.24-29.42-8.78-29.69-8.82l-.43-.06v-2.39l.52,.03c27.16,1.66,30.81-.98,31.27-1.83,.09-.17,.05-.28,.04-.28l-.07-.09-.02-.11c-.54-3.23-9.75-4.41-13.25-4.59l-24.14-4.5c-1.8-.39-2.88-1.15-3.21-2.27-.6-1.97,1.33-4.49,3.04-6.25,1.79-1.8,3.27-3.85,4.4-6.12,2.96-6.08,.85-8.41,.83-8.44l-.1-.14c-.47-1.03-1.06-1.6-1.77-1.68-1.36-.16-3.36,1.34-5.65,4.23-1.84,2.31-3.96,4.39-6.31,6.17-6.95,5.33-14.57,9.77-22.66,13.18-5.31,2.92-16.23,.14-16.69,.02-40.01-6.04-82.91-16.82-88.63-18.28,.72,22.93-12.42,40.97-12.55,41.15-.93,1.38-2,2.68-3.18,3.88Z" fill="#002346"></path>
    </g>
    <g>
      <path d="M331.07,470.12l33.17,32.79,27,14.73c1,.55,2.07,.97,3.18,1.25,3.54,.9,10,2.53,6.4,6.86,0,0-3.28,4.47-15,.8-1.1-.32-2.15-.79-3.12-1.4-1.22-.79-3.93-1.94-8.51-.89,0,0-8.35,3.3-20.62-3.2l-17.33-2.16-14.26-6.26,9.09-42.52Z" fill="#f2b3c1"></path>
      <path d="M394.05,528.5c-2.16,0-4.92-.39-8.38-1.47-1.13-.33-2.22-.82-3.23-1.45-1.15-.75-3.73-1.84-8.14-.83-.28,.12-8.59,3.27-20.88-3.2l-17.38-2.19-14.63-6.42,9.36-43.79,33.76,33.37,26.94,14.7c.97,.53,2,.93,3.07,1.21,2.77,.7,6.92,1.76,7.7,4.17,.35,1.06,0,2.23-1.04,3.48-.09,.12-1.87,2.43-7.14,2.43Zm-16.37-5.14c2.66,0,4.38,.79,5.29,1.38,.93,.58,1.94,1.03,2.99,1.34,11.18,3.5,14.43-.58,14.47-.62,.82-.99,1.11-1.85,.88-2.57-.62-1.9-4.6-2.91-6.98-3.51-1.18-.3-2.28-.73-3.32-1.3l-27.11-14.81-32.53-32.16-8.82,41.25,13.83,6.07,17.43,2.21c11.9,6.3,20.13,3.21,20.21,3.18,1.38-.32,2.6-.45,3.67-.45Z" fill="#002346"></path>
    </g>
    <g>
      <path d="M391.96,536.13c.89,1.06,1.5,2.33,1.77,3.69,.31,1.65,.11,3.58-2.27,4,0,0-3.82,.72-7-3.24,0,0-2.42,12.62-12.53,4.69l-2.94-2.66s-3.55,5.54-9.32,1.93c0,0-4.33,4.33-10.11-5.77,0,0-7.21-17.32,2.89-14.43,0,0,6.21-2.73,11.77,3.69,0,0,4.83-5.86,9.88,1.36l4.33,4.33s1.41-12.39,13.53,2.41Z" fill="#f2b3c1"></path>
      <path d="M377.93,548.38c-1.88,0-4-.91-6.31-2.72l-2.57-2.32c-1.05,1.29-4.45,4.65-9.35,1.81-.5,.37-1.59,.97-3.14,.77-2.51-.34-5.02-2.66-7.44-6.9-.21-.5-4.51-10.95-1.45-14.39,.99-1.12,2.59-1.38,4.74-.8,1.05-.38,6.69-2.05,11.8,3.48,.73-.72,2.46-2.08,4.64-2,2.02,.08,3.92,1.36,5.63,3.81l3.62,3.61c.32-1.32,1.16-3.59,3.21-4.2,2.69-.79,6.39,1.66,11.01,7.3,.94,1.12,1.59,2.47,1.87,3.91,.26,1.38,.11,2.48-.45,3.29-.47,.68-1.22,1.12-2.22,1.29-.15,.03-3.66,.64-6.83-2.69-.5,1.72-1.86,5.3-4.87,6.43-.61,.23-1.24,.34-1.91,.34Zm-9.04-6.52l3.37,3.05c2.81,2.2,5.25,2.95,7.24,2.21,3.41-1.27,4.47-6.58,4.48-6.63l.2-1.04,.67,.83c2.94,3.66,6.38,3.09,6.53,3.06,.75-.13,1.26-.42,1.58-.89,.5-.72,.43-1.78,.29-2.54-.25-1.27-.83-2.47-1.66-3.46h0c-5.4-6.6-8.4-7.44-9.97-6.99-2.24,.66-2.69,4.28-2.69,4.32l-.12,1.01-5.05-5.05c-1.58-2.25-3.22-3.39-4.92-3.46-2.42-.08-4.22,2.04-4.24,2.06l-.37,.45-.38-.44c-5.26-6.08-11.14-3.59-11.2-3.56l-.16,.07-.17-.05c-1.84-.53-3.15-.37-3.9,.47-2.2,2.47,.41,10.44,1.6,13.3,2.79,4.86,5.17,6.14,6.67,6.35,1.62,.23,2.6-.71,2.64-.75l.28-.27,.33,.2c5.28,3.3,8.51-1.57,8.64-1.78l.31-.49Z" fill="#002346"></path>
    </g>
    <g>
      <path d="M148.38,554.7l-2.27,2.08-30.31,7.94-16.56-36.08,11.34-5.6s8.87,.71,14.64-.46c2.5,3.88,5.15,7.82,7.94,11.83,5.08,7.28,10.17,14.04,15.22,20.29Z" fill="#f2b3c1"></path>
      <path d="M115.52,565.31l-.17-.38-16.76-36.51,11.89-5.87h.13c.09,.02,8.87,.7,14.5-.44l.33-.07,.18,.28c2.49,3.86,5.16,7.84,7.93,11.81,4.93,7.06,10.04,13.88,15.2,20.26l.29,.36-2.7,2.47-.12,.03-30.71,8.04Zm-15.64-36.43l16.19,35.27,29.79-7.81,1.84-1.69c-5.07-6.29-10.1-13.01-14.95-19.96-2.71-3.89-5.33-7.78-7.77-11.56-5.44,1.02-13.15,.5-14.31,.42l-10.79,5.33Z" fill="#002346"></path>
    </g>
    <g>
      <path d="M149.71,564s2.17-6.5-3.6-7.22l-8.66-3.61s-5.05-2.16-9.38,2.89c0,0-8.66,10.1-13.71,.72,0,0-8.27-16.76-12.8-29.31,0,0-15.35,6.22-17.51,11.27,0,0,14.53,18.78,22,36.35,1.44,3.38,3.66,6.36,6.47,8.72,6.06,5.11,16.71,14,23.49,19,2.61,1.94,5.75,3.05,9,3.19l34.27,1.27s2.96-8.63-14.41-15.85c0,0-14.43-3.61-15.16-12.27v-15.15Z" fill="#ffe817"></path>
      <path d="M179.63,607.79l-34.64-1.28c-3.37-.14-6.58-1.28-9.28-3.29-5.01-3.7-13.15-10.27-23.51-19.02-2.86-2.39-5.14-5.47-6.61-8.91-7.36-17.31-21.79-36.05-21.94-36.24l-.18-.23,.12-.27c2.21-5.18,17.15-11.28,17.78-11.54l.48-.19,.18,.49c4.47,12.38,12.7,29.09,12.78,29.26,1.21,2.25,2.74,3.49,4.53,3.68,4.05,.46,8.31-4.46,8.35-4.51,4.52-5.27,9.9-3.05,9.96-3.02l8.59,3.58c1.66,.22,2.87,.92,3.6,2.08,1.36,2.16,.53,5.16,.37,5.71v15.07c.69,8.16,14.64,11.75,14.78,11.79,17.67,7.34,14.89,16.13,14.76,16.5l-.12,.35Zm-95-69.11c1.73,2.27,14.93,19.87,21.88,36.22,1.4,3.29,3.59,6.24,6.33,8.53,10.35,8.73,18.47,15.3,23.47,18.98,2.54,1.89,5.56,2.96,8.72,3.09l33.85,1.25c.27-1.65,.49-8.76-14.21-14.87-.53-.13-14.71-3.78-15.46-12.69v-15.27s.02-.08,.02-.08c0-.03,.98-3.01-.24-4.94-.57-.91-1.56-1.45-2.95-1.63l-.13-.03-8.66-3.61c-.2-.08-4.78-1.94-8.81,2.75-.19,.22-4.63,5.35-9.21,4.85-2.14-.23-3.93-1.65-5.32-4.22-.09-.18-8.13-16.51-12.65-28.88-2.55,1.08-14.43,6.28-16.64,10.54Z" fill="#002346"></path>
    </g>
    <g>
      <path d="M179.39,607.4s.01,3.6-6.48,3.62l-28.15-.64c-4.81,.46-9.57-1.31-12.91-4.81,0,0-17.61-11.74-37.09-32.23,0,0-27.42-26.92-10.84-34.22,8.72,11.22,16.14,23.39,22.11,36.29,1.44,3.37,3.67,6.36,6.5,8.7,0,0,16.29,13.08,23.54,18.93,0,0,5.09,3.35,9.01,3.16l34.32,1.2Z" fill="#fff"></path>
      <path d="M172.91,611.52l-28.16-.64c-4.92,.47-9.76-1.32-13.23-4.93-1.02-.69-18.32-12.48-37.13-32.27-.73-.72-18.11-17.93-16.15-28.66,.52-2.85,2.36-4.99,5.47-6.36l.36-.16,.24,.31c8.73,11.23,16.19,23.47,22.16,36.38,1.41,3.3,3.61,6.24,6.36,8.53,0,0,16.28,13.08,23.54,18.93,.01,0,4.98,3.19,8.67,3.05l34.85,1.22v.48s0,1.1-.93,2.14c-1.17,1.31-3.21,1.97-6.04,1.98Zm-28.2-1.64l28.21,.64c4.48-.01,5.6-1.76,5.88-2.64l-33.75-1.18c-3.98,.17-9.05-3.11-9.27-3.25-7.3-5.88-23.58-18.96-23.58-18.96-2.88-2.39-5.17-5.46-6.64-8.89-5.88-12.71-13.22-24.78-21.8-35.86-2.57,1.23-4.1,3.07-4.54,5.46-1.87,10.21,15.7,27.6,15.88,27.78,19.22,20.23,36.84,32.06,37.02,32.17l.08,.07c3.25,3.41,7.81,5.12,12.5,4.66Z" fill="#002346"></path>
    </g>
    <g>
      <path d="M233.42,576.99c10.1,6.49,26.11,11.17,26.11,11.17,11.71-1.08,10.71-11.89,10.71-11.89,0-7.94,5.76-7.22,5.76-7.22h2.68l.22-.72,2.36-7.85c-31.56,3.71-44.21-.81-44.21-.81l-3.63,17.32Z" fill="#f2b3c1"></path>
      <path d="M259.48,588.66l-.09-.03c-.16-.05-16.19-4.77-26.24-11.23l-.29-.18,3.81-18.2,.53,.19c.13,.04,12.95,4.43,43.99,.78l.74-.09-2.9,9.64h-3.04c-.08,0-1.91-.21-3.37,1.09-1.26,1.12-1.9,3.02-1.9,5.64,0,.07,.24,2.82-1,5.73-1.16,2.71-3.86,6.07-10.15,6.65h-.09Zm-25.51-11.89c9.55,6.04,24.32,10.52,25.61,10.9,10.97-1.07,10.21-10.93,10.17-11.35,0-2.97,.75-5.12,2.24-6.43,1.79-1.58,3.98-1.33,4.07-1.32h2.26s2.26-7.51,2.26-7.51c-27.64,3.17-40.45,.05-43.15-.75l-3.45,16.45Z" fill="#002346"></path>
    </g>
    <g>
      <path d="M226.93,597.91s42.75,8.73,56.31,10.83c25.43,3.91,57.06-.43,62.94-1.3,.65-.09,1.13-.67,1.08-1.33-.21-2.77-3.61-9.9-30.82-16.13-9.2-3.51-17.57-8.92-24.54-15.88,0,0-4.33-5.05-9.38-5.05h-6.51s-5.76-.72-5.76,7.22c0,0,1,10.81-10.69,11.89,0,0-16-4.68-26.11-11.17-2.94,6.71-5.12,13.73-6.52,20.92Z" fill="#ffe817"></path>
      <path d="M307.02,610.85c-7.94,0-16.19-.43-23.86-1.61-13.42-2.08-55.91-10.75-56.33-10.83l-.49-.1,.09-.49c1.4-7.21,3.6-14.29,6.55-21.02l.24-.54,.49,.32c9.54,6.12,24.58,10.69,25.89,11.08,10.94-1.07,10.18-10.92,10.14-11.34,0-2.97,.75-5.12,2.25-6.44,1.8-1.59,3.99-1.33,4.07-1.32h6.45c5.22,0,9.58,5.01,9.76,5.22,6.94,6.92,15.14,12.23,24.34,15.74,26.45,6.05,30.87,12.97,31.14,16.56,.07,.92-.6,1.74-1.51,1.86-4.24,.63-20.92,2.91-39.22,2.91Zm-79.51-13.32c4.78,.97,43.18,8.77,55.8,10.73,25.21,3.88,56.73-.4,62.79-1.3,.4-.05,.68-.4,.65-.8-.16-2.08-2.82-9.36-30.43-15.68-9.4-3.58-17.71-8.96-24.78-16.01-.07-.08-4.27-4.9-9.03-4.9h-6.51c-.08,0-1.91-.2-3.36,1.09-1.26,1.12-1.9,3.01-1.9,5.63,0,.07,.25,2.82-1,5.74-1.16,2.71-3.86,6.07-10.14,6.65h-.09s-.09-.02-.09-.02c-.16-.05-15.67-4.62-25.74-10.91-2.74,6.36-4.81,13.01-6.16,19.79Z" fill="#002346"></path>
    </g>
    <g>
      <path d="M233.52,610.3l27.43,2.67c51.25,3.48,85.14-3,85.14-3,3.61-.57,1.23-4.24,1.23-4.24,.05,.66-.42,1.24-1.08,1.33-5.88,.89-37.49,5.32-62.94,1.48-13.54-2.05-56.31-10.67-56.31-10.67-3.57,13,6.53,12.42,6.53,12.42Z" fill="#fff"></path>
      <path d="M290.81,614.49c-9.11,0-19.13-.29-29.9-1.02l-27.41-2.67c-.46,.03-3.98,.06-6.15-2.62-1.84-2.27-2.12-5.79-.85-10.43l.12-.45,.46,.09c.43,.09,42.92,8.64,56.29,10.66,25.21,3.8,56.72-.57,62.79-1.48,.4-.05,.68-.41,.65-.8l-.15-1.96,1.07,1.65c.05,.08,1.33,2.07,.65,3.58-.34,.77-1.09,1.25-2.22,1.43-.25,.05-21.53,4.02-55.35,4.02Zm-57.29-4.69h.04s27.43,2.67,27.43,2.67c50.57,3.44,84.66-2.93,85-2.99,.79-.12,1.28-.41,1.48-.85,.21-.47,.09-1.1-.1-1.64-.27,.3-.64,.51-1.07,.57-6.08,.92-37.72,5.31-63.08,1.48-12.64-1.91-51.21-9.64-55.88-10.58-1.05,4.09-.79,7.14,.77,9.08,1.94,2.41,5.32,2.26,5.36,2.26h.04Z" fill="#002346"></path>
    </g>
    <g>
      <path d="M547.57,553.2l8.49,41.44s2.12,18,13.8,19.11h102.47s9,1.06,10.08-17l5.69-43.53-140.53-.02Z" fill="#fff"></path>
      <path d="M672.61,614.27c-.2,0-.32-.01-.34-.02h-102.41c-11.99-1.13-14.21-18.8-14.3-19.55l-8.61-42,141.71,.02-5.76,44.09c-.45,7.59-2.34,12.85-5.61,15.59-2,1.67-3.92,1.86-4.68,1.86Zm-.28-1.01c.14,.01,2.17,.21,4.35-1.64,2.08-1.76,4.69-5.78,5.23-14.89l5.62-43-139.35-.02,8.37,40.84c.03,.22,2.22,17.65,13.36,18.71h102.42Z" fill="#002346"></path>
    </g>
    <g>
      <path d="M552.87,478.87s-9.55,9.56-2.12,21.24c0,0,2.12,3.19,8.5,6.37,0,0,2.75,.92,4.85,7,.29,.85,.5,1.72,.64,2.61l1.28,7.87h14.85l-4.63-15.32c-.98-2.97-.21-6.25,2-8.47,1.13-1.14,2.05-2.47,2.74-3.92,1.73-3.83,3.56-10.88-2.14-17.13-3.23-3.48-7.78-5.44-12.53-5.4-1.54-.05-3.07,.3-4.45,1l5.38,11.49c.3,.65,.03,1.41-.61,1.73l-6.16,3.08c-.65,.33-1.44,.07-1.77-.58,0,0,0,0,0-.01l-5.82-11.56Z" fill="#fff"></path>
      <path d="M581.54,524.47h-15.95l-1.35-8.29c-.13-.86-.34-1.71-.62-2.53-1.97-5.71-4.52-6.68-4.54-6.69-6.48-3.23-8.66-6.43-8.75-6.57-7.56-11.89,2.08-21.77,2.18-21.87l.49-.49,6.13,12.18c.1,.2,.27,.35,.48,.42,.21,.07,.43,.05,.63-.05l6.16-3.08c.4-.2,.56-.67,.38-1.07l-5.58-11.92,.43-.22c1.44-.74,3.06-1.11,4.69-1.05h.15c4.81,0,9.45,2.02,12.74,5.56,5.94,6.52,3.95,13.87,2.23,17.68-.72,1.52-1.67,2.88-2.84,4.07-2.09,2.1-2.81,5.15-1.88,7.96l4.83,15.98Zm-15.1-1h13.75l-4.43-14.68c-1.04-3.16-.23-6.6,2.12-8.97,1.09-1.1,1.98-2.38,2.64-3.78,1.61-3.57,3.5-10.49-2.06-16.58-3.1-3.33-7.47-5.24-12.02-5.24-.05,0-.09,0-.14,0-1.31-.04-2.61,.21-3.79,.74l5.17,11.04c.41,.9,.04,1.95-.84,2.39l-6.16,3.08c-.89,.45-1.99,.09-2.44-.8l-5.5-10.93c-1.82,2.11-7.83,10.28-1.58,20.1,.01,.02,2.14,3.12,8.3,6.19,.06,.01,2.94,1.04,5.1,7.28,.3,.88,.52,1.79,.66,2.7l1.21,7.45Z" fill="#002346"></path>
    </g>
    <g>
      <polygon points="567.74 513.91 570.18 524 576.12 524 573.05 511.79 567.74 513.91" fill="#e6e7e8"></polygon>
      <path d="M576.76,524.51h-6.97l-2.63-10.89,6.24-2.49,3.37,13.39Zm-6.19-1h4.9l-2.77-11.03-4.38,1.75,2.25,9.29Z" fill="#002346"></path>
    </g>
    <rect x="612.54" y="515.03" width="16.88" height="1.06" transform="translate(74.56 1109.56) rotate(-87.09)" fill="#002346"></rect>
    <g>
      <polygon points="662.57 515.63 650.26 512.34 649.17 516.44 650.78 516.87 648.61 527.19 657.72 529.11 659.79 519.28 661.48 519.74 662.57 515.63" fill="#002346"></polygon>
      <path d="M658.1,529.71l-10.09-2.13,2.17-10.34-1.63-.44,1.35-5.07,13.28,3.55-1.35,5.08-1.67-.45-2.06,9.8Zm-8.91-2.9l8.13,1.71,2.08-9.86,1.72,.47,.83-3.14-11.34-3.03-.83,3.13,1.58,.42-2.17,10.3Z" fill="#002346"></path>
    </g>
    <g>
      <rect x="590.04" y="430.03" width="15.93" height="96.62" fill="#002346"></rect>
      <path d="M606.47,527.15h-16.93v-97.62h16.93v97.62Zm-15.93-1h14.93v-95.62h-14.93v95.62Z" fill="#002346"></path>
    </g>
    <g>
      <polygon points="539.6 524 693.47 524 690.38 556.92 545.67 556.92 539.6 524" fill="#08415c"></polygon>
      <path d="M690.83,557.43h-145.58l-.08-.41-6.18-33.51h155.02l-3.18,33.92Zm-144.75-1h143.84l3-31.92h-152.72l5.89,31.92Z" fill="#002346"></path>
    </g>
    <g>
      <path d="M626.87,502.49l2,.16,2.48-29.89c.17-2.18-1.45-4.09-3.63-4.29l-5.86-.48c-2.2-.18-4.13,1.45-4.32,3.65l-2.48,29.9,2.58,.21v2.35l-4-.3-.4,5.3,15.88,1.18,.4-5.29-2.85-.21,.2-2.29Z" fill="#ffe817"></path>
      <path d="M629.58,510.82l-16.88-1.25,.48-6.3,3.96,.3v-1.35l-2.62-.21,2.52-30.4c.21-2.47,2.4-4.31,4.86-4.11l5.86,.48c2.44,.22,4.27,2.38,4.09,4.83l-2.52,30.39-2-.16-.11,1.29,2.84,.21-.48,6.29Zm-15.8-2.18l14.88,1.11,.33-4.29-2.86-.21,.29-3.29,2,.16,2.44-29.39c.14-1.9-1.28-3.58-3.18-3.75l-5.86-.48c-1.92-.16-3.62,1.27-3.78,3.19l-2.44,29.4,2.54,.21v3.35l-4.04-.3-.33,4.3Z" fill="#002346"></path>
    </g>
    <g>
      <rect x="277.81" y="226.51" width="56.89" height="82.04" rx="28.44" ry="28.44" transform="translate(112.02 -89.73) rotate(20.33)" fill="#f2b3c1"></rect>
      <path d="M301.86,308.27c-3.33,0-6.72-.58-10.03-1.8h0c-7.25-2.69-13.02-8.04-16.25-15.06-3.23-7.03-3.53-14.89-.84-22.14l8.74-23.58c5.55-14.97,22.24-22.63,37.21-17.09,14.97,5.55,22.63,22.24,17.09,37.21l-8.74,23.58c-4.32,11.66-15.41,18.89-27.18,18.89Zm-9.68-2.75c14.45,5.36,30.55-2.05,35.9-16.49l8.74-23.58c5.35-14.45-2.05-30.55-16.49-35.91-14.45-5.35-30.55,2.05-35.91,16.49l-8.74,23.58c-5.35,14.45,2.05,30.55,16.49,35.91h0Z" fill="#002346"></path>
    </g>
    <g>
      <path d="M313.52,247.21c-3.07,1.57-6.42,2.51-9.86,2.78-1.57,.14-3.02,.91-4,2.14l-7.77,9.77s-3.87-.5-4.1-4h-9.15s-6.95,10.25-24.27-.57l3.36-7.14c1.25-2.66,2.01-5.53,2.24-8.46,.25-3.11,1.68-7.87,7.39-11.82-.02-.02,10.08,2.87,46.16,17.3Z" fill="#002346"></path>
      <path d="M268.69,262.76c-3.74,0-8.56-1.24-14.59-5l-.38-.24,3.55-7.54c1.23-2.62,1.97-5.4,2.19-8.29,.27-3.34,1.8-8.15,7.55-12.16,0,0,.02-.01,.03-.02,0,0,.01,0,.02-.01h0c.36-.16,1.72,.2,10.02,3.18,6.4,2.3,17.95,6.6,36.61,14.07l1.02,.41-.98,.5c-3.15,1.6-6.53,2.56-10.05,2.83-1.42,.12-2.75,.84-3.65,1.96l-7.94,9.99-.28-.04c-1.4-.18-4.04-1.25-4.48-4h-8.46c-.74,.91-3.96,4.36-10.19,4.36Zm-13.68-5.62c16.4,10.04,22.94,.88,23.21,.48l.15-.22h9.88s.03,.47,.03,.47c.17,2.55,2.58,3.3,3.4,3.49l7.58-9.53c1.07-1.33,2.65-2.18,4.35-2.33,3.02-.24,5.93-.99,8.66-2.24-32.38-12.93-43.27-16.33-44.83-16.8-5.31,3.76-6.73,8.22-6.98,11.31-.23,3-1,5.91-2.29,8.63l-3.17,6.74Z" fill="#002346"></path>
    </g>
    <g>
      <ellipse cx="283.21" cy="249.01" rx="8.66" ry="10.46" fill="#f2b3c1"></ellipse>
      <path d="M283.21,259.97c-5.05,0-9.15-4.91-9.15-10.95s4.11-10.95,9.15-10.95,9.15,4.91,9.15,10.95-4.11,10.95-9.15,10.95Zm0-20.92c-4.5,0-8.17,4.47-8.17,9.97s3.66,9.97,8.17,9.97,8.17-4.47,8.17-9.97-3.66-9.97-8.17-9.97Z" fill="#002346"></path>
    </g>
    <path d="M202.75,342.19c-.23,0-.44-.16-.49-.4-8.73-43.69,31.03-67.9,31.43-68.14,.24-.14,.54-.06,.69,.17,.14,.24,.06,.54-.17,.69-.4,.24-39.55,24.09-30.96,67.08,.05,.27-.12,.53-.39,.59-.03,0-.07,0-.1,0Z" fill="#002346"></path>
    <path d="M334.78,439.22s-.08,0-.12-.01c-.48-.12-11.73-2.91-16.17-11.49-2.31-4.46-2.32-9.66-.02-15.45,1.27-3.2,3.2-6.28,5.74-9.16,3.62-4.1,11.95-14.75,11.03-24.98-.02-.28,.18-.52,.45-.54,.27-.01,.52,.18,.54,.45,.96,10.62-7.57,21.54-11.27,25.73-2.46,2.79-4.33,5.77-5.56,8.86-2.19,5.5-2.19,10.42-.02,14.61,4.23,8.17,15.41,10.95,15.52,10.98,.27,.07,.43,.33,.37,.6-.06,.23-.26,.38-.49,.38Z" fill="#002346"></path>
    <path d="M317.25,421.05s-.04,0-.06,0c-31.75-3.82-51.02-27.91-52.7-30.09-39.38-8.09-68.72-51.39-69.01-51.82-.15-.23-.09-.54,.14-.69,.23-.15,.54-.09,.69,.14,.29,.43,29.49,43.53,68.56,51.44,.12,.02,.23,.09,.3,.19,.19,.26,19.47,25.92,52.13,29.84,.27,.03,.47,.28,.44,.56-.03,.25-.25,.44-.5,.44Z" fill="#002346"></path>
    <path d="M137.51,415.05c-.18,0-.36-.1-.45-.27-.13-.25-.03-.55,.22-.67l87.5-44.5c.25-.12,.55-.03,.67,.22,.13,.25,.03,.55-.22,.67l-87.5,44.5c-.07,.04-.15,.05-.23,.05Z" fill="#002346"></path>
    <path d="M105.85,481.88c-.15,0-.29-.06-.39-.19-.17-.22-.14-.53,.08-.7,15.01-11.92,20.19-38.69,20.24-38.96,.05-.27,.32-.45,.58-.4,.27,.05,.45,.31,.4,.58-.05,.27-5.3,27.4-20.6,39.55-.09,.07-.2,.11-.31,.11Z" fill="#002346"></path>
    <g>
      <path d="M134.57,473.45s18.04,5.8,66.74-29.8l37.91-26.68" fill="#ffe817"></path>
      <path d="M138.16,474.34c-2.38,0-3.56-.35-3.74-.41l.3-.95c.18,.06,18.49,5.22,66.29-29.73l37.92-26.68,.58,.82-37.91,26.68c-36.69,26.82-55.96,30.28-63.44,30.28Z" fill="#002346"></path>
    </g>
    <path d="M172.31,506.53c-2.91,0-4.28-.13-4.33-.14-.27-.03-.47-.27-.44-.55,.03-.27,.25-.48,.55-.44,.21,.02,21.9,2.07,80.45-10.79,.28-.06,.54,.11,.6,.38s-.11,.54-.38,.6c-44.27,9.73-67.56,10.95-76.44,10.95Z" fill="#002346"></path>
    <path d="M234.21,506.51c-12.61,0-19-4.26-19.33-4.49-.23-.16-.29-.47-.13-.69,.15-.23,.47-.29,.69-.13,.1,.07,10.08,6.69,29.48,3.35,.28-.05,.53,.14,.58,.41,.05,.27-.14,.53-.41,.58-4.04,.69-7.67,.97-10.89,.97Z" fill="#002346"></path>
    <path d="M352.49,518.93c-.09,0-.19-.03-.27-.08-8.02-5.11-14.06-13.93-14.12-14.02-.15-.23-.1-.54,.13-.69,.23-.15,.54-.1,.69,.13,.06,.09,5.99,8.74,13.83,13.74,.23,.15,.3,.46,.15,.69-.1,.15-.26,.23-.42,.23Z" fill="#002346"></path>
    <path d="M359.67,545.05c-.21,0-.4-.13-.47-.33l-7.22-20.2c-.09-.26,.04-.55,.3-.64,.26-.09,.54,.04,.64,.3l7.22,20.2c.09,.26-.04,.55-.3,.64-.06,.02-.11,.03-.17,.03Z" fill="#002346"></path>
    <path d="M368.01,539.55c-.21,0-.4-.13-.47-.34l-3.79-11.01c-.09-.26,.05-.55,.31-.64,.26-.09,.55,.05,.64,.31l3.79,11.01c.09,.26-.05,.55-.31,.64-.05,.02-.11,.03-.16,.03Z" fill="#002346"></path>
    <path d="M384.46,541.09c-.14,0-.28-.06-.38-.17l-6.03-6.86c-.18-.21-.16-.52,.05-.71,.21-.18,.52-.16,.71,.05l6.03,6.86c.18,.21,.16,.52-.05,.71-.09,.08-.21,.12-.33,.12Z" fill="#002346"></path>
    <g>
      <circle cx="422.51" cy="535.55" r="5" fill="#fff"></circle>
      <path d="M422.51,541.05c-3.03,0-5.5-2.47-5.5-5.5s2.47-5.5,5.5-5.5,5.5,2.47,5.5,5.5-2.47,5.5-5.5,5.5Zm0-10c-2.48,0-4.5,2.02-4.5,4.5s2.02,4.5,4.5,4.5,4.5-2.02,4.5-4.5-2.02-4.5-4.5-4.5Z" fill="#002346"></path>
    </g>
    <path d="M618.49,499.34s-.03,0-.04,0c-.27-.02-.48-.26-.46-.54l2.32-28.48c.02-.27,.25-.48,.54-.46,.27,.02,.48,.26,.46,.54l-2.32,28.48c-.02,.26-.24,.46-.5,.46Z" fill="#002346"></path>
    <path d="M622.67,499.34s-.03,0-.04,0c-.27-.02-.48-.26-.46-.54l2.32-28.48c.02-.27,.25-.48,.54-.46,.27,.02,.48,.26,.46,.54l-2.32,28.48c-.02,.26-.24,.46-.5,.46Z" fill="#002346"></path>
    <path d="M626.51,500.05s-.03,0-.05,0c-.27-.03-.48-.27-.45-.55l2.78-29.18c.03-.28,.28-.46,.55-.45,.27,.03,.48,.27,.45,.55l-2.78,29.18c-.03,.26-.24,.45-.5,.45Z" fill="#002346"></path>
    <g>
      <ellipse cx="326.5" cy="249.8" rx="9" ry="16" transform="translate(-31.16 452.48) rotate(-66.96)" fill="#002346"></ellipse>
      <path d="M332.51,260.67c-2.98,0-6.36-.69-9.73-2.12-8.37-3.56-13.51-10.38-11.46-15.2,1.01-2.39,3.57-3.92,7.21-4.32,3.53-.39,7.68,.33,11.69,2.04,8.37,3.56,13.52,10.38,11.47,15.2h0c-1.23,2.88-4.75,4.41-9.17,4.41Zm-12.05-20.75c-.62,0-1.23,.03-1.83,.1-3.26,.36-5.53,1.68-6.4,3.72-1.83,4.31,3.07,10.54,10.94,13.89,7.87,3.35,15.76,2.56,17.59-1.76,1.83-4.31-3.07-10.54-10.94-13.89-3.18-1.35-6.44-2.06-9.37-2.06Z" fill="#002346"></path>
    </g>
    <g>
      <path d="M267.34,229.89l46.18,17.32,34.64,15.87c13,7.22,18.19,6.59,18.19,6.59,5.21-2.07-21.8-19.58-21.8-19.58,7.94-18,6.5-31.75,6.5-31.75-1.76-22.31-41.28-20.74-55.94-19.37-4.53,.39-8.8,2.28-12.12,5.39-2.15,2.09-4.09,4.37-5.8,6.83-2.51,3.58-4.72,7.36-6.62,11.3-2.1,4.28-3.23,7.4-3.23,7.4Z" fill="#ffe817"></path>
      <path d="M365.98,270.19c-1.5,0-6.97-.51-18.07-6.67l-34.6-15.85-46.61-17.48,.17-.46s1.16-3.2,3.25-7.45c1.9-3.95,4.14-7.77,6.66-11.37,1.73-2.48,3.7-4.8,5.86-6.9,3.4-3.17,7.81-5.13,12.43-5.53,11.06-1.03,38.08-2.33,50.29,7.94,3.73,3.14,5.82,7.14,6.19,11.89,.01,.12,1.34,13.88-6.37,31.6,3.59,2.34,22.73,15.03,22.33,19.04-.04,.38-.24,.9-.98,1.19l-.12,.03s-.17,.02-.43,.02Zm-98-40.59l45.71,17.14,34.67,15.88c11.92,6.62,17.25,6.58,17.86,6.55,.26-.12,.28-.26,.29-.33,.26-2.68-13.5-12.67-22.24-18.33l-.36-.23,.17-.39c7.79-17.65,6.47-31.36,6.46-31.5-.35-4.48-2.32-8.25-5.84-11.21-11.92-10.03-38.63-8.73-49.56-7.71-4.4,.38-8.6,2.24-11.83,5.26-2.11,2.05-4.04,4.32-5.73,6.75-2.48,3.55-4.7,7.33-6.58,11.23-1.6,3.26-2.64,5.87-3.04,6.89Z" fill="#002346"></path>
    </g>
    <g>
      <path d="M270.57,222.49l7.59,3.79s8-8.65-1-15.09c-2.5,3.58-4.7,7.36-6.59,11.3Z" fill="#002346"></path>
      <path d="M278.27,226.9l-8.37-4.18,.21-.44c1.89-3.95,4.13-7.78,6.63-11.37l.29-.42,.41,.29c2.68,1.92,4.17,4.22,4.44,6.85,.49,4.76-3.21,8.81-3.37,8.98l-.25,.28Zm-7.04-4.63l6.8,3.39c.79-.97,3.24-4.29,2.87-7.93-.23-2.2-1.44-4.16-3.62-5.83-2.26,3.29-4.29,6.77-6.04,10.36Z" fill="#002346"></path>
    </g>
  </g>
  <g>
    <circle cx="446" cy="538.3" r="7.5" fill="#ffe817"></circle>
    <path d="M446,546.3c-4.41,0-8-3.59-8-8s3.59-8,8-8,8,3.59,8,8-3.59,8-8,8Zm0-15c-3.86,0-7,3.14-7,7s3.14,7,7,7,7-3.14,7-7-3.14-7-7-7Z" fill="#002346"></path>
  </g>
  <g>
    <circle cx="446" cy="538.3" r="2.5" fill="#fff"></circle>
    <path d="M446,541.3c-1.65,0-3-1.35-3-3s1.35-3,3-3,3,1.35,3,3-1.35,3-3,3Zm0-5c-1.1,0-2,.9-2,2s.9,2,2,2,2-.9,2-2-.9-2-2-2Z" fill="#002346"></path>
  </g>
</svg>
