<svg width="0" height="0" class="hidden">
  <symbol xmlns="http://www.w3.org/2000/svg" viewBox="0 -960 960 960" id="arrow-bottom">
    <path d="M480-345 240-585l56-56 184 184 184-184 56 56-240 240Z"></path>
  </symbol>
  <symbol xmlns="http://www.w3.org/2000/svg" viewBox="0 -960 960 960" id="arrow-left">
    <path d="m313-440 224 224-57 56-320-320 320-320 57 56-224 224h487v80H313Z"></path>
  </symbol>
  <symbol xmlns="http://www.w3.org/2000/svg" viewBox="0 -960 960 960" id="arrow-right">
    <path d="M647-440H160v-80h487L423-744l57-56 320 320-320 320-57-56 224-224Z"></path>
  </symbol>
  <symbol xmlns="http://www.w3.org/2000/svg" viewBox="0 -960 960 960" id="call">
    <path d="M798-120q-125 0-247-54.5T329-329Q229-429 174.5-551T120-798q0-18 12-30t30-12h162q14 0 25 9.5t13 22.5l26 140q2 16-1 27t-11 19l-97 98q20 37 47.5 71.5T387-386q31 31 65 57.5t72 48.5l94-94q9-9 23.5-13.5T670-390l138 28q14 4 23 14.5t9 23.5v162q0 18-12 30t-30 12ZM241-600l66-66-17-94h-89q5 41 14 81t26 79Zm358 358q39 17 79.5 27t81.5 13v-88l-94-19-67 67ZM241-600Zm358 358Z"></path>
  </symbol>
  <symbol xmlns="http://www.w3.org/2000/svg" viewBox="0 -960 960 960" id="destapador">
    <path d="M491-200q12-1 20.5-9.5T520-230q0-14-9-22.5t-23-7.5q-41 3-87-22.5T343-375q-2-11-10.5-18t-19.5-7q-14 0-23 10.5t-6 24.5q17 91 80 130t127 35ZM480-80q-137 0-228.5-94T160-408q0-100 79.5-217.5T480-880q161 137 240.5 254.5T800-408q0 140-91.5 234T480-80Zm0-80q104 0 172-70.5T720-408q0-73-60.5-165T480-774Q361-665 300.5-573T240-408q0 107 68 177.5T480-160Zm0-320Z"></path>
  </symbol>
  <symbol xmlns="http://www.w3.org/2000/svg" viewBox="0 -960 960 960" id="levantamientos">
    <path d="M159-169q-50 0-84.5-35T40-289v-240q0-33 23.5-56.5T120-609h200v-200h200q50 0 85 35t35 85l-1 160h40v-47q1-16 7-31t17-26l77-76 179 340H759q-33 0-56.5-23.5T679-449h-40v70q20 17 30.5 40.5T680-289q0 50-35 85t-85 35q-38 0-69-22t-45-58H273q-14 36-45 58t-69 22Zm0-80q17 0 29-11.5t12-28.5q0-17-11.5-28.5T160-329q-17 0-28.5 11.5T120-289q0 17 11 28.5t28 11.5Zm401 0q17 0 28.5-11.5T600-289q0-17-11.5-28.5T560-329q-17 0-28.5 11.5T520-289q0 17 11.5 28.5T560-249Zm-240-80v-200H120v127q10-4 19.5-5.5T160-409q38 0 69 22t44 58h47Zm80 0h46q13-36 44.5-58t69.5-22v-40H400v120Zm427-120-67-127v127h67Zm-427-80h160v-160q0-17-11.5-28.5T520-729H400v200Zm-80 200v-80 7-127 200Zm80 0v-120 120Z"></path>
  </symbol>
  <symbol xmlns="http://www.w3.org/2000/svg" viewBox="0 -960 960 960" id="location">
    <path d="M480-480q33 0 56.5-23.5T560-560q0-33-23.5-56.5T480-640q-33 0-56.5 23.5T400-560q0 33 23.5 56.5T480-480Zm0 294q122-112 181-203.5T720-552q0-109-69.5-178.5T480-800q-101 0-170.5 69.5T240-552q0 71 59 162.5T480-186Zm0 106Q319-217 239.5-334.5T160-552q0-150 96.5-239T480-880q127 0 223.5 89T800-552q0 100-79.5 217.5T480-80Zm0-480Z"></path>
  </symbol>
  <symbol xmlns="http://www.w3.org/2000/svg" viewBox="0 -960 960 960" id="mail">
    <path d="M160-160q-33 0-56.5-23.5T80-240v-480q0-33 23.5-56.5T160-800h640q33 0 56.5 23.5T880-720v480q0 33-23.5 56.5T800-160H160Zm320-280L160-640v400h640v-400L480-440Zm0-80 320-200H160l320 200ZM160-640v-80 480-400Z"></path>
  </symbol>
  <symbol xmlns="http://www.w3.org/2000/svg" viewBox="0 -960 960 960" id="row-right">
    <path d="M504-480 320-664l56-56 240 240-240 240-56-56 184-184Z"></path>
  </symbol>
  <symbol xmlns="http://www.w3.org/2000/svg" viewBox="0 -960 960 960" id="transporte">
    <path d="M240-160q-50 0-85-35t-35-85H40v-440q0-33 23.5-56.5T120-800h560v160h120l120 160v200h-80q0 50-35 85t-85 35q-50 0-85-35t-35-85H360q0 50-35 85t-85 35Zm0-80q17 0 28.5-11.5T280-280q0-17-11.5-28.5T240-320q-17 0-28.5 11.5T200-280q0 17 11.5 28.5T240-240ZM120-360h32q17-18 39-29t49-11q27 0 49 11t39 29h272v-360H120v360Zm600 120q17 0 28.5-11.5T760-280q0-17-11.5-28.5T720-320q-17 0-28.5 11.5T680-280q0 17 11.5 28.5T720-240Zm-40-200h170l-90-120h-80v120ZM360-540Z"></path>
  </symbol>
  <symbol  xmlns="http://www.w3.org/2000/svg" height="24" viewBox="0 -960 960 960" width="24" id="arrow-south">
    <path d="M480-80 200-360l56-56 184 183v-647h80v647l184-184 56 57L480-80Z"></path>
  </symbol>
  <symbol  xmlns="http://www.w3.org/2000/svg" height="24" viewBox="0 -960 960 960" width="24" id="copy">
    <path d="M360-240q-33 0-56.5-23.5T280-320v-480q0-33 23.5-56.5T360-880h360q33 0 56.5 23.5T800-800v480q0 33-23.5 56.5T720-240H360Zm0-80h360v-480H360v480ZM200-80q-33 0-56.5-23.5T120-160v-560h80v560h440v80H200Zm160-240v-480 480Z"></path>
  </symbol>
</svg>