<svg width="0" height="0" class="hidden">
  <symbol xmlns="http://www.w3.org/2000/svg" viewBox="0 0 512 512" id="trash-outline">
    <path d="M112 112l20 320c.95 18.49 14.4 32 32 32h184c17.67 0 30.87-13.51 32-32l20-320" fill="none" stroke="currentColor" stroke-linecap="round" stroke-linejoin="round" stroke-width="32"></path>
    <path stroke="currentColor" stroke-linecap="round" stroke-miterlimit="10" stroke-width="32" d="M80 112h352"></path>
    <path d="M192 112V72h0a23.93 23.93 0 0124-24h80a23.93 23.93 0 0124 24h0v40M256 176v224M184 176l8 224M328 176l-8 224" fill="none" stroke="currentColor" stroke-linecap="round" stroke-linejoin="round" stroke-width="32"></path>
  </symbol>
  <symbol xmlns="http://www.w3.org/2000/svg" viewBox="0 0 512 512" id="reorder-three-outline">
    <path fill="none" stroke="currentColor" stroke-linecap="round" stroke-linejoin="round" stroke-width="32" d="M96 256h320M96 176h320M96 336h320"></path>
  </symbol>
  <symbol xmlns="http://www.w3.org/2000/svg" viewBox="0 0 512 512" id="close-outline">
    <path fill="none" stroke="currentColor" stroke-linecap="round" stroke-linejoin="round" stroke-width="32" d="M368 368L144 144M368 144L144 368"></path>
  </symbol>
  <symbol xmlns="http://www.w3.org/2000/svg" viewBox="0 0 512 512" id="cart-outline">
    <circle cx="176" cy="416" r="16" fill="none" stroke="currentColor" stroke-linecap="round" stroke-linejoin="round" stroke-width="32"></circle>
    <circle cx="400" cy="416" r="16" fill="none" stroke="currentColor" stroke-linecap="round" stroke-linejoin="round" stroke-width="32"></circle>
    <path fill="none" stroke="currentColor" stroke-linecap="round" stroke-linejoin="round" stroke-width="32" d="M48 80h64l48 272h256"></path>
    <path d="M160 288h249.44a8 8 0 007.85-6.43l28.8-144a8 8 0 00-7.85-9.57H128" fill="none" stroke="currentColor" stroke-linecap="round" stroke-linejoin="round" stroke-width="32"></path>
  </symbol>
  <symbol xmlns="http://www.w3.org/2000/svg" viewBox="0 0 512 512" id="contrast-outline">
    <circle cx="256" cy="256" r="208" fill="none" stroke="currentColor" stroke-linejoin="round" stroke-width="32"></circle>
    <path d="M256 464c-114.88 0-208-93.12-208-208S141.12 48 256 48z"></path>
  </symbol>
  <symbol xmlns="http://www.w3.org/2000/svg" viewBox="0 0 512 512" id="chatbubble-ellipses-outline">
    <path d="M87.48 380c1.2-4.38-1.43-10.47-3.94-14.86a42.63 42.63 0 00-2.54-3.8 199.81 199.81 0 01-33-110C47.64 139.09 140.72 48 255.82 48 356.2 48 440 117.54 459.57 209.85a199 199 0 014.43 41.64c0 112.41-89.49 204.93-204.59 204.93-18.31 0-43-4.6-56.47-8.37s-26.92-8.77-30.39-10.11a31.14 31.14 0 00-11.13-2.07 30.7 30.7 0 00-12.08 2.43L81.5 462.78a15.92 15.92 0 01-4.66 1.22 9.61 9.61 0 01-9.58-9.74 15.85 15.85 0 01.6-3.29z" fill="none" stroke="currentColor" stroke-linecap="round" stroke-miterlimit="10" stroke-width="32"></path>
    <circle cx="160" cy="256" r="32"></circle>
    <circle cx="256" cy="256" r="32"></circle>
    <circle cx="352" cy="256" r="32"></circle>
  </symbol>
  <symbol xmlns="http://www.w3.org/2000/svg" viewBox="0 0 512 512" id="location-outline">
    <path d="M256 48c-79.5 0-144 61.39-144 137 0 87 96 224.87 131.25 272.49a15.77 15.77 0 0025.5 0C304 409.89 400 272.07 400 185c0-75.61-64.5-137-144-137z" fill="none" stroke="currentColor" stroke-linecap="round" stroke-linejoin="round" stroke-width="32"></path>
    <circle cx="256" cy="192" r="48" fill="none" stroke="currentColor" stroke-linecap="round" stroke-linejoin="round" stroke-width="32"></circle>
  </symbol>
  <symbol xmlns="http://www.w3.org/2000/svg" viewBox="0 0 512 512" id="call-outline">
    <path d="M451 374c-15.88-16-54.34-39.35-73-48.76-24.3-12.24-26.3-13.24-45.4.95-12.74 9.47-21.21 17.93-36.12 14.75s-47.31-21.11-75.68-49.39-47.34-61.62-50.53-76.48 5.41-23.23 14.79-36c13.22-18 12.22-21 .92-45.3-8.81-18.9-32.84-57-48.9-72.8C119.9 44 119.9 47 108.83 51.6A160.15 160.15 0 0083 65.37C67 76 58.12 84.83 51.91 98.1s-9 44.38 23.07 102.64 54.57 88.05 101.14 134.49S258.5 406.64 310.85 436c64.76 36.27 89.6 29.2 102.91 23s22.18-15 32.83-31a159.09 159.09 0 0013.8-25.8C465 391.17 468 391.17 451 374z" fill="none" stroke="currentColor" stroke-miterlimit="10" stroke-width="32"></path>
  </symbol>
  <symbol xmlns="http://www.w3.org/2000/svg" viewBox="0 0 512 512" id="logo-whatsapp">
    <path d="M414.73 97.1A222.14 222.14 0 00256.94 32C134 32 33.92 131.58 33.87 254a220.61 220.61 0 0029.78 111L32 480l118.25-30.87a223.63 223.63 0 00106.6 27h.09c122.93 0 223-99.59 223.06-222A220.18 220.18 0 00414.73 97.1zM256.94 438.66h-.08a185.75 185.75 0 01-94.36-25.72l-6.77-4-70.17 18.32 18.73-68.09-4.41-7A183.46 183.46 0 0171.53 254c0-101.73 83.21-184.5 185.48-184.5a185 185 0 01185.33 184.64c-.04 101.74-83.21 184.52-185.4 184.52zm101.69-138.19c-5.57-2.78-33-16.2-38.08-18.05s-8.83-2.78-12.54 2.78-14.4 18-17.65 21.75-6.5 4.16-12.07 1.38-23.54-8.63-44.83-27.53c-16.57-14.71-27.75-32.87-31-38.42s-.35-8.56 2.44-11.32c2.51-2.49 5.57-6.48 8.36-9.72s3.72-5.56 5.57-9.26.93-6.94-.46-9.71-12.54-30.08-17.18-41.19c-4.53-10.82-9.12-9.35-12.54-9.52-3.25-.16-7-.2-10.69-.2a20.53 20.53 0 00-14.86 6.94c-5.11 5.56-19.51 19-19.51 46.28s20 53.68 22.76 57.38 39.3 59.73 95.21 83.76a323.11 323.11 0 0031.78 11.68c13.35 4.22 25.5 3.63 35.1 2.2 10.71-1.59 33-13.42 37.63-26.38s4.64-24.06 3.25-26.37-5.11-3.71-10.69-6.48z" fill-rule="evenodd"></path>
  </symbol>
  <symbol xmlns="http://www.w3.org/2000/svg" viewBox="0 0 512 512" id="chevron-forward-outline">
    <path fill="none" stroke="currentColor" stroke-linecap="round" stroke-linejoin="round" stroke-width="48" d="M184 112l144 144-144 144"></path>
  </symbol>
  <symbol xmlns="http://www.w3.org/2000/svg" viewBox="0 -960 960 960" id="double-arrow-down">
    <path d="M480-200 240-440l56-56 184 183 184-183 56 56-240 240Zm0-240L240-680l56-56 184 183 184-183 56 56-240 240Z"></path>
  </symbol>
  <symbol xmlns="http://www.w3.org/2000/svg" class="ionicon" viewBox="0 0 512 512" id="arrow-down">
    <path fill="none" stroke="currentColor" stroke-linecap="round" stroke-linejoin="round" stroke-width="48" d="M112 268l144 144 144-144M256 392V100"></path>
  </symbol>
  <symbol xmlns="http://www.w3.org/2000/svg" class="ionicon" viewBox="0 0 512 512" id="arrow-filled-down">
    <path d="M98 190.06l139.78 163.12a24 24 0 0036.44 0L414 190.06c13.34-15.57 2.28-39.62-18.22-39.62h-279.6c-20.5 0-31.56 24.05-18.18 39.62z"></path>
  </symbol>
  <symbol xmlns="http://www.w3.org/2000/svg" class="ionicon" viewBox="0 0 512 512" id="reset">
    <path d="M320 146s24.36-12-64-12a160 160 0 10160 160" fill="none" stroke="currentColor" stroke-linecap="round" stroke-miterlimit="10" stroke-width="32"/><path fill="none" stroke="currentColor" stroke-linecap="round" stroke-linejoin="round" stroke-width="32" d="M256 58l80 80-80 80"></path>
  </symbol>
</svg>